<?xml version="1.0" encoding="UTF-8"?>
<svg id="Capa_2" data-name="Capa 2" xmlns="http://www.w3.org/2000/svg" viewBox="0 0 162.95 41.85">
  <defs>
    <style>
      .cls-1, .cls-2 {
        fill: none;
      }

      .cls-3 {
        fill: #fff;
      }

      .cls-2 {
        stroke: #fff;
        stroke-linecap: round;
        stroke-linejoin: round;
        stroke-width: 1.5px;
      }
    </style>
  </defs>
  <g id="Capa_1-2" data-name="Capa 1">
    <path class="cls-1" d="m70.17,0h41.85v41.85h-41.85V0Z"/>
    <path class="cls-3" d="m92.84,33.13l-1.74,1.74-13.08-12.95c-3.45-3.36-3.53-8.88-.17-12.33,3.36-3.45,8.88-3.53,12.33-.17.33.32.64.67.92,1.05,2.89-3.85,8.35-4.64,12.21-1.75,3.85,2.89,4.64,8.35,1.75,12.21"/>
    <path class="cls-2" d="m103.3,27.9l-3.49,5.23h6.97l-3.49,5.23"/>
    <g>
      <path class="cls-3" d="m7.59,28.39c-.1-.73-.33-1.5-.9-3.09l-1.92-5.55c-.02-.1-.65-2.04-.71-2.21q-.23-.75-.33-1.04c.13,1.31.21,3.02.21,4.13v4.53c0,1.44.04,2.36.17,3.23H0c.12-.94.17-1.81.17-3.23v-10.87c0-1.25-.06-2.36-.17-3.25h5.51c.15.9.31,1.56.79,2.94l3.13,8.99,3.11-8.99c.48-1.4.65-2.07.77-2.94h5.53c-.13,1-.17,1.86-.17,3.25v10.87c0,1.59.04,2.4.17,3.23h-4.11c.12-.96.17-1.75.17-3.23v-4.55c0-.5.06-2.06.1-2.71q.06-1.11.08-1.42c-.46,1.63-.67,2.38-.94,3.13l-2.02,5.72c-.52,1.48-.79,2.4-.9,3.07h-3.63Z"/>
      <path class="cls-3" d="m37.4,11.04c-.12.9-.17,1.65-.17,3.15v7.18c0,4.76-2.86,7.45-7.88,7.45-2.59,0-4.69-.73-5.94-2.04-1.21-1.29-1.84-3.11-1.84-5.44v-7.13c0-1.44-.04-2.36-.17-3.15h4.51c-.12.77-.17,1.61-.17,3.15v7.18c0,2.63,1.19,3.88,3.63,3.88s3.69-1.25,3.69-3.88v-7.18c0-1.56-.04-2.21-.17-3.15h4.51Z"/>
      <path class="cls-3" d="m50.48,28.39c-.13-.67-.38-1.52-1.02-3.25-.67-1.81-.92-2.29-1.44-2.75-.44-.4-.96-.56-1.63-.56h-2.13v3.42c0,1.42.04,2.19.17,3.15h-4.48c.12-.96.17-1.58.17-3.13v-11.22c0-1.29-.04-2.06-.17-3.07.92.04,1.69.06,3.11.06h5.42c3.38,0,5.34,1.75,5.34,4.76,0,1.48-.42,2.65-1.23,3.42-.52.48-.96.71-1.98,1.04,1.06.33,1.54.81,2.21,2.29.31.67.6,1.38,1.54,3.63.23.58.48,1.11,1,2.21h-4.88Zm-2.96-10.14c1.23,0,1.98-.75,1.98-1.94s-.67-1.77-1.96-1.77h-3.27v3.71h3.25Z"/>
      <path class="cls-3" d="m65.58,25.3c0,1.08.04,2,.17,3.09h-4.55c.1-.96.17-1.92.17-3.09v-3.86l-4.8-7.88c-.38-.65-.83-1.33-1.67-2.52h5.28c.23.73.46,1.27.98,2.19l2.31,4.23,2.32-4.21c.52-.96.81-1.61.96-2.21h5.28c-.6.88-1.4,2.06-1.67,2.52l-4.78,7.88v3.86Z"/>
    </g>
    <g>
      <path class="cls-3" d="m122.17,26.86c-.12-.67-.38-1.52-1.02-3.25-.67-1.81-.92-2.29-1.44-2.75-.44-.4-.96-.56-1.63-.56h-2.13v3.42c0,1.42.04,2.19.17,3.15h-4.48c.12-.96.17-1.58.17-3.13v-11.22c0-1.29-.04-2.06-.17-3.07.92.04,1.69.06,3.11.06h5.42c3.38,0,5.34,1.75,5.34,4.76,0,1.48-.42,2.65-1.23,3.42-.52.48-.96.71-1.98,1.04,1.06.33,1.54.81,2.21,2.29.31.67.61,1.38,1.54,3.63.23.58.48,1.11,1,2.21h-4.88Zm-2.96-10.14c1.23,0,1.98-.75,1.98-1.94s-.67-1.77-1.96-1.77h-3.27v3.71h3.25Z"/>
      <path class="cls-3" d="m145.1,18.1c0,5.51-3.36,9.16-8.43,9.16s-8.41-3.57-8.41-9.09,3.3-9.03,8.43-9.03,8.41,3.5,8.41,8.97Zm-4.34.04c0-3.38-1.54-5.42-4.07-5.42s-4.11,2.06-4.11,5.42,1.56,5.51,4.11,5.51,4.07-2.09,4.07-5.51Z"/>
      <path class="cls-3" d="m147.37,12.51c0-1.42-.04-2.11-.19-3.07.83.04,1.36.06,3.09.06h4.36c2.57,0,4.63.71,6.03,2.06,1.52,1.5,2.29,3.69,2.29,6.47s-.83,5.15-2.42,6.74c-1.4,1.38-3.38,2.09-5.86,2.09h-4.4c-1.61,0-2.19.02-3.07.06.13-.92.17-1.61.17-3.04v-11.37Zm6.93,10.7c1.36,0,2.31-.35,3.07-1.11.86-.88,1.31-2.27,1.31-4s-.4-3.07-1.21-3.88c-.73-.73-1.73-1.06-3.23-1.06h-2.73v10.05h2.8Z"/>
    </g>
  </g>
</svg>